# xmcd
#
# Track frame offsets:
#	150
#	3417
#	15329
#	29141
#	41158
#	50489
#	65304
#	80200
#	97037
#	113095
#	127336
#	140640
#	157500
#	176659
#	192879
#	207005
#	220477
#	233711
#	250221
#	265537
#	280486
#
# Disc length: 3931 seconds
#
# Revision: 0
# Processed by: cddbd v1.4PL0 Copyright (c) Steve Scherf et al.
# Submitted via: EasyCDDAExtractor 5.0.5.1
#
DISCID=300f5915
DTITLE=Gaviões do Forró - Ao vivo II
DYEAR=1900
DGENRE=
TTITLE0=Abertura
TTITLE1=Tchaka tchaka na muchaka
TTITLE2=Prá lá de bagdá
TTITLE3=Firim fimfim com fimfim
TTITLE4=Dançando com a comadre
TTITLE5=Bicho bom é mulher
TTITLE6=Festas que eu gosto
TTITLE7=Cavaleiro alado gonzagão
TTITLE8=Amor Gonzagão
TTITLE9=Amor mercenário
TTITLE10=Lavas de um vulcão
TTITLE11=Amor de anita
TTITLE12=To paquerando
TTITLE13=Tatuagem de amor
TTITLE14=No sangue e no suor
TTITLE15=Teu amor
TTITLE16=Na onda do forró
TTITLE17=Sabiá Sertanejo
TTITLE18=Que nem doce no tacho
TTITLE19=Coração menino
TTITLE20=Feito maluco
EXTD=
EXTT0=
EXTT1=
EXTT2=
EXTT3=
EXTT4=
EXTT5=
EXTT6=
EXTT7=
EXTT8=
EXTT9=
EXTT10=
EXTT11=
EXTT12=
EXTT13=
EXTT14=
EXTT15=
EXTT16=
EXTT17=
EXTT18=
EXTT19=
EXTT20=
PLAYORDER=
